<?xml version="1.0" standalone="no"?><!DOCTYPE svg PUBLIC "-//W3C//DTD SVG 1.1//EN" "http://www.w3.org/Graphics/SVG/1.1/DTD/svg11.dtd"><svg t="1594213553276" class="icon" viewBox="0 0 1024 1024" version="1.1" xmlns="http://www.w3.org/2000/svg" p-id="6778" xmlns:xlink="http://www.w3.org/1999/xlink" width="200" height="200"><defs><style type="text/css"></style></defs><path d="M669.963173 895.598608c-87.240947 0-157.952428-70.714552-157.952428-157.952428s70.712505-157.952428 157.952428-157.952428c87.2389 0 157.928892 70.714552 157.928892 157.952428S757.202073 895.598608 669.963173 895.598608zM772.451382 682.821527c-8.813736-8.813736-23.116487-8.813736-31.908734 0l-79.792301 79.769788-47.861054-47.861054c-8.813736-8.813736-23.091928-8.813736-31.908734 0-8.813736 8.813736-8.813736 23.091928 0 31.906687l63.816444 63.816444c8.813736 8.813736 23.11444 8.813736 31.930223 0l95.723132-95.723132C781.266142 705.915501 781.266142 691.635263 772.451382 682.821527zM660.927379 535.027459c-0.771573-0.065492-1.453095-0.463558-2.26867-0.463558l-338.448292 0c-18.708084 0-33.869389 15.161305-33.869389 33.846876 0 18.687618 15.160281 33.846876 33.869389 33.846876l198.674898 0c-17.517979 19.547195-31.269168 42.441625-40.21491 67.693752L320.210417 669.951405c-18.708084 0-33.869389 15.161305-33.869389 33.846876 0 18.687618 15.160281 33.846876 33.869389 33.846876l146.670477 0c0 41.758056 12.626575 80.541361 34.241872 112.823602l-214.781738 0c-49.845245 0-90.236164-40.414455-90.236164-90.258677L196.104865 308.918745c0-49.845245 40.390919-90.258677 90.236164-90.258677l45.12985 0 0 90.258677L647.398248 308.918745l0-90.258677 45.12985 0c49.844222 0 90.237187 40.413432 90.237187 90.258677l0 259.890099c-32.261775-21.617343-71.044056-34.244942-112.801089-34.244942C666.899394 534.563902 663.947156 534.895453 660.927379 535.027459zM692.528098 433.023274c0-18.686594-15.161305-33.846876-33.869389-33.846876l-338.448292 0c-18.708084 0-33.869389 15.160281-33.869389 33.846876s15.160281 33.846876 33.869389 33.846876l338.448292 0C677.36577 466.871173 692.528098 451.709869 692.528098 433.023274zM466.881918 263.788895 376.600729 263.788895l0-90.258677 45.12985 0c0-24.922622 20.228717-45.12985 45.151339-45.12985l45.128827 0c24.922622 0 45.12985 20.207227 45.12985 45.12985l45.12985 0 0 90.258677-90.258677 0L466.881918 263.788895zM489.42433 173.530219c-12.429077 0-22.542412 10.091846-22.542412 22.564925 0 12.472056 10.114358 22.563902 22.542412 22.563902 12.471033 0 22.586414-10.091846 22.586414-22.563902C512.010745 183.623088 501.895363 173.530219 489.42433 173.530219z" p-id="6779" fill="#1afa29"></path></svg>