<?xml version="1.0" standalone="no"?><!DOCTYPE svg PUBLIC "-//W3C//DTD SVG 1.1//EN" "http://www.w3.org/Graphics/SVG/1.1/DTD/svg11.dtd"><svg t="1594197118438" class="icon" viewBox="0 0 1024 1024" version="1.1" xmlns="http://www.w3.org/2000/svg" p-id="2114" xmlns:xlink="http://www.w3.org/1999/xlink" width="200" height="200"><defs><style type="text/css"></style></defs><path d="M85.333333 253.866667h853.333334V938.666667H85.333333V253.866667z" fill="#3399FF" p-id="2115"></path><path d="M960 960H64V232.533333h896V960zM106.666667 917.333333h810.666666V275.2H106.666667V917.333333z" p-id="2116"></path><path d="M832 426.666667c-59.733333 0-106.666667-46.933333-106.666667-106.666667 0 59.733333-46.933333 106.666667-106.666666 106.666667s-106.666667-46.933333-106.666667-106.666667c0 59.733333-46.933333 106.666667-106.666667 106.666667s-106.666667-46.933333-106.666666-106.666667c0 59.733333-46.933333 106.666667-106.666667 106.666667s-106.666667-46.933333-106.666667-106.666667V170.666667c0-46.933333 38.4-85.333333 85.333334-85.333334h682.666666c46.933333 0 85.333333 38.4 85.333334 85.333334v149.333333c0 57.6-46.933333 106.666667-106.666667 106.666667z" fill="#FFBF80" p-id="2117"></path><path d="M832 448c-44.8 0-83.2-23.466667-106.666667-57.6-23.466667 34.133333-61.866667 57.6-106.666666 57.6s-83.2-23.466667-106.666667-57.6c-23.466667 34.133333-61.866667 57.6-106.666667 57.6s-83.2-23.466667-106.666666-57.6c-23.466667 34.133333-61.866667 57.6-106.666667 57.6-70.4 0-128-57.6-128-128V170.666667c0-59.733333 46.933333-106.666667 106.666667-106.666667h682.666666c59.733333 0 106.666667 46.933333 106.666667 106.666667v149.333333c0 70.4-57.6 128-128 128z m-85.333333-128c0 46.933333 38.4 85.333333 85.333333 85.333333s85.333333-38.4 85.333333-85.333333V170.666667c0-36.266667-27.733333-64-64-64H170.666667C134.4 106.666667 106.666667 134.4 106.666667 170.666667v149.333333c0 46.933333 38.4 85.333333 85.333333 85.333333s85.333333-38.4 85.333333-85.333333h42.666667c0 46.933333 38.4 85.333333 85.333333 85.333333s85.333333-38.4 85.333334-85.333333h42.666666c0 46.933333 38.4 85.333333 85.333334 85.333333s85.333333-38.4 85.333333-85.333333h42.666667z" p-id="2118"></path><path d="M512 640c59.733333 0 106.666667 46.933333 106.666667 106.666667v192H405.333333v-192c0-59.733333 46.933333-106.666667 106.666667-106.666667z" fill="#FFFFFF" p-id="2119"></path><path d="M640 960H384V746.666667c0-70.4 57.6-128 128-128s128 57.6 128 128v213.333333z m-213.333333-42.666667h170.666666v-170.666666c0-46.933333-38.4-85.333333-85.333333-85.333334s-85.333333 38.4-85.333333 85.333334v170.666666z" p-id="2120"></path></svg>